HIERARCHY
ROOT hip
{
  OFFSET 0.00112043 5.09927 -9.65472
  CHANNELS 6 Xposition Yposition Zposition Zrotation Xrotation Yrotation
  JOINT abdomen
  {
    OFFSET 0 -1.186 -1.5018
    CHANNELS 3 Zrotation Xrotation Yrotation
    JOINT abdomen2
    {
      OFFSET 0 9.964 0.2134
      CHANNELS 3 Zrotation Xrotation Yrotation
      JOINT chest
      {
        OFFSET 0 13.134 -3.2573
        CHANNELS 3 Zrotation Xrotation Yrotation
        JOINT neck
        {
          OFFSET 0 20.686 -1.6905
          CHANNELS 3 Zrotation Xrotation Yrotation
          JOINT head
          {
            OFFSET 0 7.238 -0.1237
            CHANNELS 3 Zrotation Xrotation Yrotation
            End Site
            {
              OFFSET 0 0 0
            }
          }
        }
        JOINT lCollar
        {
          OFFSET 1.7069 20.075 5.0056
          CHANNELS 3 Zrotation Xrotation Yrotation
          JOINT lShldr
          {
            OFFSET 13.6458 -0.047 -4.849
            CHANNELS 3 Zrotation Xrotation Yrotation
            JOINT lForeArm
            {
              OFFSET 28.3255 -0.9759 2.2888
              CHANNELS 3 Zrotation Xrotation Yrotation
              JOINT lHand
              {
                OFFSET 22.1583 -0.53 10.8316
                CHANNELS 3 Zrotation Xrotation Yrotation
                JOINT lThumb1
                {
                  OFFSET 0.786 0.112 2.5817
                  CHANNELS 3 Zrotation Xrotation Yrotation
                  JOINT lThumb2
                  {
                    OFFSET 0.3601 -0.878 4.2331
                    CHANNELS 3 Zrotation Xrotation Yrotation
                    JOINT lThumb2_End
                    {
                      OFFSET 1.8127 -1.216 2.2227
                      CHANNELS 3 Zrotation Xrotation Yrotation
                      End Site
                      {
                        OFFSET 0.0181 -0.0122 0.0222
                      }
                    }
                  }
                }
                JOINT lCarpal1
                {
                  OFFSET 0.9571 1.114 1.7695
                  CHANNELS 3 Zrotation Xrotation Yrotation
                  JOINT lIndex1
                  {
                    OFFSET 4.1246 0.487 4.1451
                    CHANNELS 3 Zrotation Xrotation Yrotation
                    JOINT lIndex2
                    {
                      OFFSET 3.4052 -1.454 2.7682
                      CHANNELS 3 Zrotation Xrotation Yrotation
                      JOINT lIndex2_End
                      {
                        OFFSET 1.4531 -1.795 1.2713
                        CHANNELS 3 Zrotation Xrotation Yrotation
                        End Site
                        {
                          OFFSET 0.0145 -0.0179 0.0127
                        }
                      }
                    }
                  }
                  JOINT lMid1
                  {
                    OFFSET 5.6954 0.21 2.1184
                    CHANNELS 3 Zrotation Xrotation Yrotation
                    JOINT lMid2
                    {
                      OFFSET 3.9766 -1.54 2.3863
                      CHANNELS 3 Zrotation Xrotation Yrotation
                      JOINT lMid2_End
                      {
                        OFFSET 1.4042 -1.926 1.125
                        CHANNELS 3 Zrotation Xrotation Yrotation
                        End Site
                        {
                          OFFSET 0.014 -0.0193 0.0113
                        }
                      }
                    }
                  }
                }
                JOINT lCarpal2
                {
                  OFFSET 2.0956 0.66 -0.3894
                  CHANNELS 3 Zrotation Xrotation Yrotation
                  JOINT lRing1
                  {
                    OFFSET 5.0395 -0.09 2.4971
                    CHANNELS 3 Zrotation Xrotation Yrotation
                    JOINT lRing2
                    {
                      OFFSET 3.7921 -1.552 1.4806
                      CHANNELS 3 Zrotation Xrotation Yrotation
                      JOINT lRing2_End
                      {
                        OFFSET 1.4655 -1.808 0.9609
                        CHANNELS 3 Zrotation Xrotation Yrotation
                        End Site
                        {
                          OFFSET 0.0147 -0.0181 0.0096
                        }
                      }
                    }
                  }
                  JOINT lPinky1
                  {
                    OFFSET 4.9141 -1.269 0.3591
                    CHANNELS 3 Zrotation Xrotation Yrotation
                    JOINT lPinky2
                    {
                      OFFSET 3.1477 -1.685 0.8462
                      CHANNELS 3 Zrotation Xrotation Yrotation
                      JOINT lPinky2_End
                      {
                        OFFSET 0.8055 -1.585 0.7955
                        CHANNELS 3 Zrotation Xrotation Yrotation
                        End Site
                        {
                          OFFSET 0.0081 -0.0158 0.008
                        }
                      }
                    }
                  }
                }
              }
            }
          }
        }
        JOINT rCollar
        {
          OFFSET -1.7069 20.075 5.0056
          CHANNELS 3 Zrotation Xrotation Yrotation
          JOINT rShldr
          {
            OFFSET -13.6458 -0.047 -4.849
            CHANNELS 3 Zrotation Xrotation Yrotation
            JOINT rForeArm
            {
              OFFSET -28.3255 -0.9759 2.2888
              CHANNELS 3 Zrotation Xrotation Yrotation
              JOINT rHand
              {
                OFFSET -22.1583 -0.53 10.8316
                CHANNELS 3 Zrotation Xrotation Yrotation
                JOINT rThumb1
                {
                  OFFSET -0.786 0.112 2.5817
                  CHANNELS 3 Zrotation Xrotation Yrotation
                  JOINT rThumb2
                  {
                    OFFSET -0.3601 -0.878 4.2331
                    CHANNELS 3 Zrotation Xrotation Yrotation
                    JOINT rThumb2_End
                    {
                      OFFSET -1.8127 -1.216 2.2227
                      CHANNELS 3 Zrotation Xrotation Yrotation
                      End Site
                      {
                        OFFSET -0.0181 -0.0122 0.0222
                      }
                    }
                  }
                }
                JOINT rCarpal1
                {
                  OFFSET -0.9571 1.114 1.7695
                  CHANNELS 3 Zrotation Xrotation Yrotation
                  JOINT rIndex1
                  {
                    OFFSET -4.1246 0.487 4.1451
                    CHANNELS 3 Zrotation Xrotation Yrotation
                    JOINT rIndex2
                    {
                      OFFSET -3.4052 -1.454 2.7682
                      CHANNELS 3 Zrotation Xrotation Yrotation
                      JOINT rIndex2_End
                      {
                        OFFSET -1.4531 -1.795 1.2713
                        CHANNELS 3 Zrotation Xrotation Yrotation
                        End Site
                        {
                          OFFSET -0.0145 -0.018 0.0127
                        }
                      }
                    }
                  }
                  JOINT rMid1
                  {
                    OFFSET -5.6954 0.21 2.1184
                    CHANNELS 3 Zrotation Xrotation Yrotation
                    JOINT rMid2
                    {
                      OFFSET -3.9766 -1.54 2.3863
                      CHANNELS 3 Zrotation Xrotation Yrotation
                      JOINT rMid2_End
                      {
                        OFFSET -1.4042 -1.926 1.125
                        CHANNELS 3 Zrotation Xrotation Yrotation
                        End Site
                        {
                          OFFSET -0.014 -0.0193 0.0113
                        }
                      }
                    }
                  }
                }
                JOINT rCarpal2
                {
                  OFFSET -2.0956 0.66 -0.3894
                  CHANNELS 3 Zrotation Xrotation Yrotation
                  JOINT rRing1
                  {
                    OFFSET -5.0395 -0.09 2.4971
                    CHANNELS 3 Zrotation Xrotation Yrotation
                    JOINT rRing2
                    {
                      OFFSET -3.7921 -1.552 1.4806
                      CHANNELS 3 Zrotation Xrotation Yrotation
                      JOINT rRing2_End
                      {
                        OFFSET -1.4655 -1.808 0.9609
                        CHANNELS 3 Zrotation Xrotation Yrotation
                        End Site
                        {
                          OFFSET -0.0147 -0.0181 0.0096
                        }
                      }
                    }
                  }
                  JOINT rPinky1
                  {
                    OFFSET -4.9141 -1.269 0.3592
                    CHANNELS 3 Zrotation Xrotation Yrotation
                    JOINT rPinky2
                    {
                      OFFSET -3.1477 -1.685 0.8462
                      CHANNELS 3 Zrotation Xrotation Yrotation
                      JOINT rPinky2_End
                      {
                        OFFSET -0.8055 -1.585 0.7955
                        CHANNELS 3 Zrotation Xrotation Yrotation
                        End Site
                        {
                          OFFSET -0.0081 -0.0158 0.008
                        }
                      }
                    }
                  }
                }
              }
            }
          }
        }
      }
    }
  }
  JOINT lThigh
  {
    OFFSET 8.367 -8.2066 0.5982
    CHANNELS 3 Zrotation Xrotation Yrotation
    JOINT lShin
    {
      OFFSET 2.1923 -43.463 -0.4932
      CHANNELS 3 Zrotation Xrotation Yrotation
      JOINT lFoot
      {
        OFFSET 0.7333 -45.8593 -2.6451
        CHANNELS 3 Zrotation Xrotation Yrotation
        End Site
        {
          OFFSET 2.6618 -4.2699 12.3931
        }
      }
    }
  }
  JOINT rThigh
  {
    OFFSET -8.367 -8.2066 0.5982
    CHANNELS 3 Zrotation Xrotation Yrotation
    JOINT rShin
    {
      OFFSET -2.1923 -43.463 -0.4931
      CHANNELS 3 Zrotation Xrotation Yrotation
      JOINT rFoot
      {
        OFFSET -0.7333 -45.8593 -2.6451
        CHANNELS 3 Zrotation Xrotation Yrotation
        End Site
        {
          OFFSET -2.6618 -4.2699 12.3931
        }
      }
    }
  }
}
MOTION
Frames:	4
Frame Time:	0.0333333
31.813 11.8777 -13.3392 -90.4034 -89.7353 89.3393 -0.323173 3.68115 -0.150207 -0.638635 7.36309 -0.280426 -0.638635 7.36312 -0.280425 1.46238e-006 -27.3573 9.98233e-007 -0.0531118 -16.5992 -0.0194195 -13.1485 10.0768 -5.42666 -74.7989 -17.7144 -55.5998 33.6707 -51.0312 -84.8473 6.14188 10.0498 -14.0086 -9.93923e-016 -1.39149e-015 -3.18055e-015 1.99035e-007 -3.74366e-007 -4.63084e-008 -1.78906e-015 5.96354e-016 -0 -2.5842e-015 4.96962e-016 -3.18055e-015 9.93923e-016 -1.2921e-015 3.18055e-015 1.99035e-007 -3.74366e-007 -4.63084e-008 9.93923e-016 2.38542e-015 -3.18055e-015 9.93923e-016 -1.2921e-015 3.18055e-015 1.99035e-007 -3.74366e-007 -4.63084e-008 9.93923e-016 2.38542e-015 -3.18055e-015 -2.5842e-015 4.96962e-016 -3.18055e-015 9.93923e-016 -1.2921e-015 3.18055e-015 1.99035e-007 -3.74366e-007 -4.63084e-008 9.93923e-016 2.38542e-015 -3.18055e-015 9.93923e-016 -1.2921e-015 3.18055e-015 1.99035e-007 -3.74366e-007 -4.63084e-008 9.93923e-016 2.38542e-015 -3.18055e-015 12.6765 10.2226 6.37527 75.03 -17.1076 56.3424 -34.6388 -52.2616 83.8232 -6.46439 10.2887 14.112 4.13176e-007 7.42179e-007 -7.8068e-008 -5.96354e-016 8.94531e-016 3.18055e-015 4.13176e-007 7.42179e-007 -7.8068e-008 9.93923e-016 -1.68967e-015 6.36111e-015 4.13176e-007 7.42179e-007 -7.8068e-008 -3.97569e-016 -2.98177e-016 3.18055e-015 4.13176e-007 7.42179e-007 -7.8068e-008 4.13176e-007 7.42179e-007 -7.8068e-008 -3.97569e-016 -2.98177e-016 3.18055e-015 4.13176e-007 7.42179e-007 -7.8068e-008 9.93923e-016 -1.68967e-015 6.36111e-015 4.13176e-007 7.42179e-007 -7.8068e-008 -3.97569e-016 -2.98177e-016 3.18055e-015 4.13176e-007 7.42179e-007 -7.8068e-008 4.13176e-007 7.42179e-007 -7.8068e-008 -3.97569e-016 -2.98177e-016 3.18055e-015 4.13176e-007 7.42179e-007 -7.8068e-008 32.5816 -32.6705 48.1783 133.786 51.0878 -141.996 5.99207 29.6147 4.2724 -32.5675 -32.6362 -48.1931 -133.761 51.097 141.974 -5.98069 29.573 -4.28385 
31.8128 11.8839 -13.3143 -90.4034 -89.7353 89.3393 -0.323173 3.68115 -0.150207 -0.638635 7.36309 -0.280426 -0.638635 7.36312 -0.280425 3.17985e-006 -27.5905 1.52148e-006 -0.0535029 -17.4375 -0.0191597 -13.0777 9.93658 -5.3079 -74.7989 -17.7145 -55.5998 33.6707 -51.0313 -84.8473 6.02492 10.0639 -13.8088 -1.14676e-006 3.50953e-007 1.28118e-007 -1.49772e-006 -7.95809e-007 7.14299e-008 -3.97904e-007 7.48858e-007 9.24032e-008 -2.38542e-015 4.96962e-016 -6.36111e-015 -1.14676e-006 3.50953e-007 1.28118e-007 -1.49772e-006 -7.95809e-007 7.14299e-008 -3.97904e-007 7.48858e-007 9.24032e-008 -1.14676e-006 3.50953e-007 1.28118e-007 -1.49772e-006 -7.95809e-007 7.14299e-008 -3.97904e-007 7.48858e-007 9.24032e-008 -2.38542e-015 4.96962e-016 -6.36111e-015 -1.14676e-006 3.50953e-007 1.28118e-007 -1.49772e-006 -7.95809e-007 7.14299e-008 -3.97904e-007 7.48858e-007 9.24032e-008 -1.14676e-006 3.50953e-007 1.28118e-007 -1.49772e-006 -7.95809e-007 7.14299e-008 -3.97904e-007 7.48858e-007 9.24032e-008 12.6152 10.0777 6.23522 75.03 -17.1076 56.3424 -34.6388 -52.2616 83.8233 -6.34422 10.2993 13.9151 -2.18663e-015 4.96962e-016 1.59028e-014 -2.68359e-015 -3.47873e-015 9.54166e-015 7.42289e-007 -4.13059e-007 -3.5672e-008 -1.39149e-015 2.88238e-015 1.59028e-014 -1.78906e-015 -1.09332e-015 2.22639e-014 -8.94531e-016 -2.08724e-015 -3.18055e-015 7.42289e-007 -4.13059e-007 -3.5672e-008 -1.78906e-015 -1.09332e-015 2.22639e-014 -8.94531e-016 -2.08724e-015 -3.18055e-015 7.42289e-007 -4.13059e-007 -3.5672e-008 -1.39149e-015 2.88238e-015 1.59028e-014 -1.78906e-015 -1.09332e-015 2.22639e-014 -8.94531e-016 -2.08724e-015 -3.18055e-015 7.42289e-007 -4.13059e-007 -3.5672e-008 -1.78906e-015 -1.09332e-015 2.22639e-014 -8.94531e-016 -2.08724e-015 -3.18055e-015 7.42289e-007 -4.13059e-007 -3.5672e-008 32.5801 -32.6584 48.1606 133.672 51.1834 -141.839 6.01678 29.6021 4.25832 -32.5658 -32.6245 -48.1752 -133.645 51.1907 141.815 -6.00509 29.5607 -4.2699 
31.8127 11.8901 -13.2894 -90.4034 -89.7353 89.3393 -0.323173 3.68115 -0.150207 -0.638635 7.36309 -0.280426 -0.638635 7.36312 -0.280425 1.07138e-006 -27.8237 1.26125e-006 -0.0539889 -18.2769 -0.0192271 -13.0067 9.79648 -5.189 -74.7989 -17.7145 -55.5998 33.6707 -51.0313 -84.8474 5.90788 10.0777 -13.609 -3.97737e-007 7.48984e-007 9.21891e-008 3.86266e-007 -8.62888e-007 3.12519e-006 3.51247e-007 1.14672e-006 5.671e-008 -2.78299e-015 4.07509e-015 9.54166e-015 -3.97737e-007 7.48984e-007 9.21891e-008 3.86266e-007 -8.62888e-007 3.12519e-006 3.51247e-007 1.14672e-006 5.671e-008 -3.97737e-007 7.48984e-007 9.21891e-008 3.86266e-007 -8.62888e-007 3.12519e-006 3.51247e-007 1.14672e-006 5.671e-008 -2.78299e-015 4.07509e-015 9.54166e-015 -3.97737e-007 7.48984e-007 9.21891e-008 3.86266e-007 -8.62888e-007 3.12519e-006 3.51247e-007 1.14672e-006 5.671e-008 -3.97737e-007 7.48984e-007 9.21891e-008 3.86266e-007 -8.62888e-007 3.12519e-006 3.51247e-007 1.14672e-006 5.671e-008 12.5535 9.93293 6.09506 75.03 -17.1076 56.3424 -34.6388 -52.2616 83.8233 -6.22401 10.3094 13.7181 -1.63853e-006 -1.06789e-006 -8.46527e-006 1.49089e-015 -4.96962e-016 3.18055e-015 1.39445e-006 -1.57895e-006 -6.93412e-007 9.93923e-017 -1.39149e-015 9.54166e-015 -1.63853e-006 -1.06789e-006 -8.46527e-006 9.93923e-016 -3.47873e-015 9.54166e-015 1.39445e-006 -1.57895e-006 -6.93412e-007 -1.63853e-006 -1.06789e-006 -8.46527e-006 9.93923e-016 -3.47873e-015 9.54166e-015 1.39445e-006 -1.57895e-006 -6.93412e-007 9.93923e-017 -1.39149e-015 9.54166e-015 -1.63853e-006 -1.06789e-006 -8.46527e-006 9.93923e-016 -3.47873e-015 9.54166e-015 1.39445e-006 -1.57895e-006 -6.93412e-007 -1.63853e-006 -1.06789e-006 -8.46527e-006 9.93923e-016 -3.47873e-015 9.54166e-015 1.39445e-006 -1.57895e-006 -6.93412e-007 32.5787 -32.6463 48.1429 133.557 51.2787 -141.681 6.04141 29.5895 4.24433 -32.5641 -32.6128 -48.1574 -133.53 51.2842 141.656 -6.02938 29.5484 -4.25601 
31.8126 11.8963 -13.2645 -90.4034 -89.7353 89.3393 -0.323173 3.68115 -0.150207 -0.638635 7.36309 -0.280426 -0.638635 7.36312 -0.280425 3.31228e-006 -28.0572 4.42067e-007 -0.0548187 -19.1173 -0.0203414 -12.9354 9.65652 -5.06996 -74.7989 -17.7145 -55.5998 33.6707 -51.0312 -84.8474 5.79079 10.091 -13.4091 -5.13184e-007 7.62422e-007 6.17683e-006 3.97569e-007 -7.49111e-007 -9.19749e-008 2.35926e-007 1.15999e-006 6.14159e-006 1.39149e-015 7.95139e-016 -3.18055e-015 -5.13184e-007 7.62422e-007 6.17683e-006 3.97569e-007 -7.49111e-007 -9.19748e-008 2.35926e-007 1.15999e-006 6.14159e-006 -5.13184e-007 7.62422e-007 6.17683e-006 3.97569e-007 -7.49111e-007 -9.19748e-008 2.35926e-007 1.15999e-006 6.14159e-006 1.39149e-015 7.95139e-016 -3.18055e-015 -5.13184e-007 7.62422e-007 6.17683e-006 3.97569e-007 -7.49111e-007 -9.19748e-008 2.35926e-007 1.15999e-006 6.14159e-006 -5.13184e-007 7.62422e-007 6.17683e-006 3.97569e-007 -7.49111e-007 -9.19748e-008 2.35926e-007 1.15999e-006 6.14159e-006 12.4914 9.7883 5.9548 75.03 -17.1076 56.3424 -34.6388 -52.2616 83.8233 -6.10374 10.3191 13.5211 -1.78906e-015 -1.78906e-015 -9.54166e-015 -9.04485e-007 -5.9238e-007 -6.56321e-006 -3.41225e-007 -4.23027e-007 -5.61091e-006 -9.93923e-016 -1.49089e-015 -9.54166e-015 -1.2921e-015 -4.57205e-015 -9.54166e-015 -9.04485e-007 -5.9238e-007 -6.56321e-006 -3.41225e-007 -4.23027e-007 -5.61091e-006 -1.2921e-015 -4.57205e-015 -9.54166e-015 -9.04485e-007 -5.9238e-007 -6.56321e-006 -3.41225e-007 -4.23027e-007 -5.61091e-006 -9.93923e-016 -1.49089e-015 -9.54166e-015 -1.2921e-015 -4.57205e-015 -9.54166e-015 -9.04485e-007 -5.9238e-007 -6.56321e-006 -3.41225e-007 -4.23027e-007 -5.61091e-006 -1.2921e-015 -4.57205e-015 -9.54166e-015 -9.04485e-007 -5.9238e-007 -6.56321e-006 -3.41225e-007 -4.23027e-007 -5.61091e-006 32.5771 -32.6343 48.1252 133.442 51.3738 -141.522 6.06597 29.5769 4.23036 -32.5624 -32.6011 -48.1397 -133.413 51.3774 141.496 -6.05362 29.536 -4.24218 
